<svg width="1600" height="1200" viewBox="0 0 1600 1200" fill="none" xmlns="http://www.w3.org/2000/svg">
  <defs>
    <linearGradient id="bg" x1="0" y1="0" x2="1" y2="1">
      <stop offset="0%" stop-color="#0f172a"/>
      <stop offset="100%" stop-color="#1e293b"/>
    </linearGradient>
    <linearGradient id="accent" x1="0" y1="0" x2="1" y2="0">
      <stop offset="0%" stop-color="#8b5cf6"/>
      <stop offset="100%" stop-color="#38bdf8"/>
    </linearGradient>
  </defs>
  <rect width="1600" height="1200" fill="url(#bg)"/>
  <circle cx="1280" cy="180" r="260" fill="#6366f1" opacity="0.25"/>
  <circle cx="200" cy="960" r="300" fill="#22d3ee" opacity="0.18"/>
  <rect x="280" y="240" width="720" height="520" rx="36" fill="#0b1220" stroke="#334155" stroke-width="2"/>
  <rect x="320" y="280" width="220" height="120" rx="16" fill="url(#accent)" opacity="0.9"/>
  <rect x="570" y="280" width="380" height="36" rx="12" fill="#334155"/>
  <rect x="570" y="340" width="320" height="28" rx="10" fill="#1f2937"/>
  <rect x="320" y="430" width="630" height="40" rx="12" fill="#1f2937"/>
  <rect x="320" y="490" width="560" height="40" rx="12" fill="#1f2937"/>
  <rect x="320" y="550" width="500" height="40" rx="12" fill="#1f2937"/>
  <rect x="320" y="610" width="460" height="40" rx="12" fill="#1f2937"/>
  <rect x="1040" y="520" width="220" height="320" rx="28" fill="#111827" stroke="#1f2937" stroke-width="2"/>
  <rect x="1070" y="560" width="160" height="24" rx="10" fill="#334155"/>
  <rect x="1070" y="600" width="140" height="24" rx="10" fill="#334155"/>
  <rect x="1070" y="640" width="180" height="24" rx="10" fill="#334155"/>
  <rect x="1070" y="680" width="150" height="24" rx="10" fill="#334155"/>
  <rect x="1070" y="720" width="130" height="24" rx="10" fill="#334155"/>
  <rect x="1040" y="880" width="220" height="120" rx="28" fill="#0b1220" stroke="#1f2937" stroke-width="2"/>
  <rect x="1070" y="920" width="160" height="16" rx="8" fill="#334155"/>
  <rect x="1070" y="948" width="120" height="16" rx="8" fill="#334155"/>
  <path d="M390 320 H470 V360 H510 V440 H470 V480 H390 V440 H350 V360 H390 V320 Z" fill="#ffffff"/>
</svg>
